<svg xmlns="http://www.w3.org/2000/svg" viewBox="0 0 2873.27 926.09">
  <defs>
    <style>
      .cls-1 {
        fill: #fff;
      }
    </style>
  </defs>
  <g id="Layer_2" data-name="Layer 2">
    <g id="Layer_1-2" data-name="Layer 1">
      <path class="cls-1"
        d="M965.16,695a496.89,496.89,0,0,0,33.5-127.24C892.94,566,798.31,521.84,728.87,452A359.76,359.76,0,0,0,965.16,695Z" />
      <path class="cls-1"
        d="M730.75,674.13A359.93,359.93,0,0,0,858,856,501.28,501.28,0,0,0,909.81,794C841.21,768,779.86,727.13,730.75,674.13Z" />
      <path class="cls-1"
        d="M581.22,670.69c-85.86,92.7-207.71,151.17-343.86,151.16V710.21c164.75,0,302.2-110.9,345.75-261.61-70.83,71.2-167.73,116.1-276,116.16a.24.24,0,0,1-.24-.24v-94c165.7,0,300-134.33,300-300h94.2c0,165.22,133.11,299.06,297.9,300.89C983.66,202.93,757.29-9,482.88.29,216.19,9.33-2.44,238.1,0,504.93,1.66,683.25,96.94,838.82,238.74,926.09,400.63,925.48,535.84,817.84,581.22,670.69Z" />
      <path class="cls-1"
        d="M1373.27,832.93h-53.84V662.56a19.79,19.79,0,0,0-19.8-19.8h-49.58l6-33.23h187.4l-5.93,33.23h-44.4a19.8,19.8,0,0,0-19.8,19.8Z" />
      <path class="cls-1"
        d="M1588.89,816a99.59,99.59,0,0,1-16.85,9.68,112.83,112.83,0,0,1-17.15,6.19,115,115,0,0,1-16.76,3.19,142,142,0,0,1-15.87.92q-19.52,0-35.24-5.27a74.35,74.35,0,0,1-26.68-15.16,65.52,65.52,0,0,1-16.85-24.4q-5.87-14.5-5.87-33.09,0-21,7.32-37.75a84.81,84.81,0,0,1,19.6-28.22A86,86,0,0,1,1493,674.41a94.07,94.07,0,0,1,33.87-6.19A81,81,0,0,1,1555,673a61.84,61.84,0,0,1,22.24,13.95,62.62,62.62,0,0,1,14.57,22.89q5.19,13.62,5.18,31.48a97.82,97.82,0,0,1-.53,10.68,68.5,68.5,0,0,1-1.28,8.07H1492.05q0,10.68,3.76,18.3a32.76,32.76,0,0,0,10.66,12.58,46.84,46.84,0,0,0,16.7,7.25,96,96,0,0,0,21.8,2.29c2.86,0,6-.11,9.54-.3s7.16-.6,11-1.15,7.7-1.26,11.67-2.14a84.84,84.84,0,0,0,11.73-3.43Zm-40-74.57a70.41,70.41,0,0,0-2-18.15,37.8,37.8,0,0,0-5.71-12.57,23.11,23.11,0,0,0-8.71-7.33,25.69,25.69,0,0,0-11-2.35,26.08,26.08,0,0,0-12,2.73,26.63,26.63,0,0,0-9.3,7.93,38.19,38.19,0,0,0-6,12.65,62.12,62.12,0,0,0-2.16,17.09Z" />
      <path class="cls-1"
        d="M1633.43,671.27h44.68l6.4,47.44c1.64-2.94,3.29-6,5-9s3.24-5.87,4.71-8.47,2.8-4.84,4-6.78,2-3.35,2.52-4.27a57.89,57.89,0,0,1,6.57-8.76,40.81,40.81,0,0,1,8.08-6.93,38.41,38.41,0,0,1,9.9-4.59,42,42,0,0,1,12.2-1.69,45.27,45.27,0,0,1,9.68,1.16,32.58,32.58,0,0,1,9.69,3.73L1751,720.7a28.63,28.63,0,0,0-3.67-.54c-1.52-.15-3.14-.28-4.8-.38s-3.31-.17-4.89-.24-3-.06-4.2-.06a61.57,61.57,0,0,0-27.51,5.95,56.71,56.71,0,0,0-19.61,15.23v92.27h-52.91Z" />
      <path class="cls-1"
        d="M1874.51,809.6q-4.58,3.81-10.36,8.38a111.49,111.49,0,0,1-12.67,8.62,78.12,78.12,0,0,1-14.63,6.72,50.63,50.63,0,0,1-16.47,2.66,39.15,39.15,0,0,1-31.65-14.63,46,46,0,0,1-7.92-14.8,52.86,52.86,0,0,1-2.68-16.47,45.45,45.45,0,0,1,5.12-21.2q5.12-9.92,15.93-17.3t27.6-11.67q16.77-4.27,40-4.26h6v-9.47q0-12.36-7.61-18.75t-20.44-6.4a54.57,54.57,0,0,0-11.81,1.36,90.74,90.74,0,0,0-12.44,3.74,102.09,102.09,0,0,0-12.2,5.56,106.28,106.28,0,0,0-11.13,6.87l-2.76-1.53-9-32.17A174.67,174.67,0,0,1,1822.51,672a164.62,164.62,0,0,1,34.47-3.76,126.15,126.15,0,0,1,27.07,2.76,63,63,0,0,1,21.8,8.91A44.39,44.39,0,0,1,1920.42,696q5.34,9.91,5.33,24.4v65a30.4,30.4,0,0,0,.47,5.41,14.29,14.29,0,0,0,1.66,4.8,10,10,0,0,0,3.37,3.52,9.87,9.87,0,0,0,5.48,1.37,30.9,30.9,0,0,0,4.21-.3,20.26,20.26,0,0,0,4.64-1.39v22.59a98.65,98.65,0,0,1-19.83,10.75,52.71,52.71,0,0,1-19.22,3.88q-12,0-19.81-6.87T1874.51,809.6Zm-1.83-55.35h-5.78A92.89,92.89,0,0,0,1847,756a36,36,0,0,0-12.52,4.94,17.62,17.62,0,0,0-6.49,7.7,27,27,0,0,0-1.81,10.16,25.79,25.79,0,0,0,1.67,9.83,19.59,19.59,0,0,0,4.5,6.72,17.13,17.13,0,0,0,6.57,3.88,25,25,0,0,0,7.84,1.22,35.36,35.36,0,0,0,12.12-2.37,47.78,47.78,0,0,0,13.8-8.45Z" />
      <path class="cls-1"
        d="M2094.57,832.93h-53.83V609.53H2121q22.11,0,39.18,4.94t28.75,14.27a60,60,0,0,1,17.62,22.42,70.78,70.78,0,0,1,5.95,29.58,78.39,78.39,0,0,1-6.48,32.32,73.69,73.69,0,0,1-17.62,24.64,78.66,78.66,0,0,1-26,15.63,90.86,90.86,0,0,1-31.63,5.48c-1.65,0-3.22,0-4.74-.15s-3.31-.3-5.33-.6l2.58-30.5a15.76,15.76,0,0,0,3.05.37c1.22.06,2.35.08,3.35.08a26.32,26.32,0,0,0,13.35-3.28,27.87,27.87,0,0,0,9.45-8.92,42.48,42.48,0,0,0,5.65-13.12,64.89,64.89,0,0,0,1.9-16q0-11.91-3-20.22a34.1,34.1,0,0,0-8.56-13.57,33.52,33.52,0,0,0-13.41-7.7,59.5,59.5,0,0,0-17.62-2.45h-22.87Z" />
      <path class="cls-1"
        d="M2348.78,671.27h44.68l6.4,26.54q5.19-4.57,11.67-9.75a121.23,121.23,0,0,1,14-9.62,87.79,87.79,0,0,1,16.08-7.31,55.47,55.47,0,0,1,17.85-2.91,50.71,50.71,0,0,1,20.52,4.06,45.85,45.85,0,0,1,15.85,11.37,51.92,51.92,0,0,1,10.3,17.59,67.94,67.94,0,0,1,3.65,22.8V832.93h-53.07V731.68a35,35,0,0,0-1.9-12,25.76,25.76,0,0,0-5.18-8.7,21.06,21.06,0,0,0-7.7-5.25,25.51,25.51,0,0,0-9.47-1.77,33,33,0,0,0-15.94,4.12,87.21,87.21,0,0,0-14.86,10.38V832.93h-52.92Z" />
      <path class="cls-1"
        d="M2697.09,816a99.59,99.59,0,0,1-16.85,9.68,112.83,112.83,0,0,1-17.15,6.19,115,115,0,0,1-16.76,3.19,142,142,0,0,1-15.87.92q-19.52,0-35.24-5.27a74.35,74.35,0,0,1-26.68-15.16,65.52,65.52,0,0,1-16.85-24.4q-5.86-14.5-5.87-33.09,0-21,7.32-37.75a84.81,84.81,0,0,1,19.6-28.22,86,86,0,0,1,28.43-17.68,94.07,94.07,0,0,1,33.87-6.19,81,81,0,0,1,28.14,4.74,61.84,61.84,0,0,1,22.24,13.95A62.62,62.62,0,0,1,2700,709.8q5.19,13.62,5.18,31.48a97.82,97.82,0,0,1-.53,10.68,68.5,68.5,0,0,1-1.28,8.07H2600.25q0,10.68,3.76,18.3a32.76,32.76,0,0,0,10.66,12.58,46.84,46.84,0,0,0,16.7,7.25,96,96,0,0,0,21.8,2.29c2.86,0,6-.11,9.54-.3s7.16-.6,11-1.15,7.7-1.26,11.67-2.14a84.84,84.84,0,0,0,11.73-3.43Zm-40-74.57a70.41,70.41,0,0,0-2-18.15,37.8,37.8,0,0,0-5.71-12.57,23.11,23.11,0,0,0-8.71-7.33,25.66,25.66,0,0,0-11-2.35,26.08,26.08,0,0,0-12,2.73,26.63,26.63,0,0,0-9.3,7.93,38.19,38.19,0,0,0-6,12.65,62.12,62.12,0,0,0-2.16,17.09Z" />
      <path class="cls-1"
        d="M2738.73,790.23l2.75-1.51a127.8,127.8,0,0,0,26.23,10.66,92.57,92.57,0,0,0,24.85,3.82,39.79,39.79,0,0,0,10.84-1.3,24,24,0,0,0,7.55-3.44,14,14,0,0,0,4.41-5,12.7,12.7,0,0,0,1.45-5.86,10.85,10.85,0,0,0-3.43-8.26,29.32,29.32,0,0,0-9.15-5.48,95,95,0,0,0-13-4q-7.23-1.75-14.78-4a141.44,141.44,0,0,1-14.8-5.26,48.92,48.92,0,0,1-12.95-7.94,35.61,35.61,0,0,1-9.15-12.11c-2.28-4.82-3.43-10.71-3.43-17.62a49.51,49.51,0,0,1,4.94-22.12,47.93,47.93,0,0,1,14.66-17.3,72.26,72.26,0,0,1,23.87-11.28q14.16-4,32.78-4.06c3.13,0,6.7.11,10.66.32s8,.52,12.14.92,8.13,1,12,1.67a105.65,105.65,0,0,1,10.6,2.45l-7.76,34.3-2.9,1.68a107.41,107.41,0,0,0-21.74-6.55,103.91,103.91,0,0,0-18.38-2,40.26,40.26,0,0,0-10.67,1.22,21.5,21.5,0,0,0-7.17,3.26,13.23,13.23,0,0,0-4,4.73,12.92,12.92,0,0,0-1.3,5.72,11.2,11.2,0,0,0,3.5,8.62,28.54,28.54,0,0,0,9.15,5.5,97.29,97.29,0,0,0,13,3.95q7.32,1.76,14.86,3.81a132.74,132.74,0,0,1,14.87,5,46.66,46.66,0,0,1,13,7.85,38.15,38.15,0,0,1,9.15,12q3.49,7.08,3.5,17.45a51.77,51.77,0,0,1-4.5,21.29,48.76,48.76,0,0,1-13.65,17.77q-9.15,7.6-23.1,12.2T2790.73,836q-7.17,0-14.87-.68c-5.12-.47-10.26-1.15-15.4-2.07s-10.22-2.07-15.25-3.5a106.48,106.48,0,0,1-14.1-5Z" />
      <polygon class="cls-1" points="2296.74 832.93 2242.39 832.93 2251.86 704.77 2287.27 704.77 2296.74 832.93" />
      <path class="cls-1" d="M2269.57,832.93h32.9c2.12,0,3.09-1.64,1.53-2.56-3.85-2.28-7.93-6.51-8.5-14.3Z" />
      <path class="cls-1" d="M2269.57,832.93h-32.91c-2.12,0-3.09-1.64-1.53-2.56,3.86-2.28,7.93-6.51,8.5-14.3Z" />
      <path class="cls-1"
        d="M2301.09,667.21c2.48-6.23,3.24-12.48,1.12-18.9a20.49,20.49,0,0,0-6.9-9.54,33.76,33.76,0,0,0-5.2-3.75c-5.43-2.93-11.11-5.06-17.47-4.79a20.22,20.22,0,0,0-15.24,7.37c-1.63,1.92-3.06,4-4.54,6a7.88,7.88,0,0,0-.8,1.62c-.37.91-.23,1.25.69,1.56a32.85,32.85,0,0,0,17.76,1.3,16.36,16.36,0,0,0,8.44-4.67,1.76,1.76,0,0,1,2.51-.38c.44.22.9.4,1.36.58a3,3,0,0,1,1.92,2.65,6,6,0,0,1,0,.74c-.24,5.15,1.72,9.49,5,13.31a43.51,43.51,0,0,0,9.55,8.14.82.82,0,0,0,1.35-.37C2300.83,667.8,2301,667.47,2301.09,667.21Z" />
      <path class="cls-1"
        d="M2296.9,627.73l-4.42-4.05a1.62,1.62,0,0,0-2.39.22c-1.91,2.54-5.64,8.1-5.79,12.9a1.62,1.62,0,0,0,2.77,1.14,49.54,49.54,0,0,1,9.5-7.6A1.61,1.61,0,0,0,2296.9,627.73Z" />
      <path class="cls-1"
        d="M2259.92,692.92a4.66,4.66,0,0,0,1.12.2,60,60,0,0,0,6.29-.74,19.09,19.09,0,0,0,3.83-1.63.83.83,0,0,0,.45-1.23c-1.29-2.63-1.67-5.5-2.2-8.33-.25-1.36-.49-1.56-1.84-1.55a3.51,3.51,0,0,1-3-1.38,1.13,1.13,0,0,0-1.66-.31,33.33,33.33,0,0,1-7.89,3.67,1.08,1.08,0,0,0-.8,1.48,29.88,29.88,0,0,0,1.74,4.69,34,34,0,0,0,2.93,4.17A7.86,7.86,0,0,0,2259.92,692.92Z" />
      <path class="cls-1"
        d="M2273.47,662.87a9.14,9.14,0,0,0,2.2,0c2.48-.59,4.95-1.25,7.39-2,1.19-.34,1.26-.67.61-1.71a24,24,0,0,1-3.24-9.86c-.14-1.16-.26-1.22-1.21-.55a22.34,22.34,0,0,1-9.77,3.93c-1.09.16-1.26.4-.81,1.42,1.07,2.34,2.15,4.68,3.32,7A9.22,9.22,0,0,0,2273.47,662.87Z" />
      <path class="cls-1"
        d="M2251,656a24.94,24.94,0,0,0-2.15,6.39c-.24,1.19,0,1.4,1.19,1.37a30.81,30.81,0,0,0,13.72-4c2.12-1.11,2.1-1.12,1.21-3.36a23.53,23.53,0,0,1-.84-2.58.86.86,0,0,0-.91-.76,32.27,32.27,0,0,1-8.84-1.36,1.14,1.14,0,0,0-1.41.69C2252.24,653.55,2251.61,654.77,2251,656Z" />
      <path class="cls-1"
        d="M2293.44,676.2l0,.1a.14.14,0,0,0,0,.06s0,0,0,0l-.17.31a2.14,2.14,0,0,0-.1.22c0,.11-.12.21-.17.32-.83,1.43-1.64,2.87-2.51,4.27-.72,1.17-1.12,1.15-1.93.1-3.36-4.38-5.1-9.43-6.19-14.76-.17-.83.1-1.18.94-1.46a22.08,22.08,0,0,0,2.4-.86c1.31-.58,1.62-.56,2.58.5a29.75,29.75,0,0,0,6.29,5.28,1.37,1.37,0,0,1,.63,2.07c-.53,1.21-1.1,2.4-1.66,3.59l0,0Z" />
      <path class="cls-1"
        d="M2267.75,675.16a7.11,7.11,0,0,0,1.33.17,21.46,21.46,0,0,0,9.16-2.73,1.05,1.05,0,0,0,.58-1.28c-.21-1-.45-2-.69-3a1.31,1.31,0,0,0-1.45-1.07c-.6,0-1.2.07-1.8.12a6,6,0,0,1-6-3.07,10.67,10.67,0,0,0-.57-.91,1.16,1.16,0,0,0-1.72-.35c-.9.52-1.79,1.06-2.7,1.56a1.27,1.27,0,0,0-.69,1.63,23.57,23.57,0,0,0,3.43,7.71A9.22,9.22,0,0,0,2267.75,675.16Z" />
      <path class="cls-1"
        d="M2284.62,684a4,4,0,0,0-.25-.77c-1.06-1.88-2.15-3.75-3.19-5.64-.45-.81-.88-1-1.74-.71l-5.08,1.88c-.76.28-1,.72-.76,1.73.77,2.83,1.61,5.64,2.44,8.45a9.14,9.14,0,0,0,.49,1.22c.18.41.49.53.86.26,2.44-1.82,5-3.51,6.9-5.94C2284.37,684.39,2284.44,684.27,2284.62,684Z" />
      <path class="cls-1"
        d="M2250.49,668.5a22.63,22.63,0,0,0-.33,2.64c0,1.89.06,3.78.16,5.67.08,1.31.45,1.57,1.69,1.26a26.28,26.28,0,0,0,8.66-3.91A.88.88,0,0,0,2261,673q-1-2.64-2-5.31a1,1,0,0,0-1.24-.74c-2.1.39-4.22.73-6.32,1.12A4,4,0,0,0,2250.49,668.5Z" />
      <polygon class="cls-1" points="1307.99 202.85 1337.52 295.07 1293.04 295.07 1263.51 202.85 1307.99 202.85" />
      <polygon class="cls-1" points="1307.99 457.66 1337.52 319.87 1293.04 319.87 1263.51 457.66 1307.99 457.66" />
      <path class="cls-1"
        d="M1393.28,176.61v237.3q0,41.94-27.33,66.72Q1352.08,493,1338.61,497h-47.76q14.58-5.83,28.8-19.32,29.16-26.62,29.17-63.8V176.61Z" />
      <path class="cls-1"
        d="M1561,467.13l-7.29,29.9h-98.06A18.69,18.69,0,0,1,1437,478.44V175.52h44.47V459.85c0,4.87,2.43,7.28,7.3,7.28Z" />
      <polygon class="cls-1" points="1525.61 202.85 1495.72 295.07 1540.19 295.07 1570.09 202.85 1525.61 202.85" />
      <polygon class="cls-1" points="1525.61 457.66 1495.72 319.87 1540.19 319.87 1570.09 457.66 1525.61 457.66" />
      <polygon class="cls-1" points="1682.17 485 1689.47 267.37 1725.92 267.37 1718.63 485 1682.17 485" />
      <polygon class="cls-1" points="1819.97 267.37 1827.26 485 1791.17 485 1783.88 267.37 1819.97 267.37" />
      <path class="cls-1"
        d="M1946.46,470.41a6.91,6.91,0,0,0,5.83-2.91,5.84,5.84,0,0,0,1.46-5.47l-10.57-49.58h43.74l18.6,54.68q3.27,7.65,3.27,12.4v2.55q0,6.56-5.47,11.66-5.1,5.83-12,5.84H1852a17.46,17.46,0,0,1-12.75-6.21,18.41,18.41,0,0,1-4.75-13.47l29.17-147.28h43.38l-21.5,129.78a9,9,0,0,0,1.45,5.1,7.27,7.27,0,0,0,6.2,2.91Z" />
      <polygon class="cls-1"
        points="1682.17 225.09 1732.84 225.09 1732.84 172.95 1776.59 172.95 1776.59 225.09 1827.26 225.09 1827.26 253.88 1776.59 253.88 1776.59 499.58 1732.84 499.58 1732.84 253.88 1682.17 253.88 1682.17 225.09" />
      <polygon class="cls-1" points="1834.55 318.05 1863.71 172.95 1907.09 172.95 1877.93 318.05 1834.55 318.05" />
      <polygon class="cls-1" points="1965.05 318.05 1936.26 172.95 1979.63 172.95 2008.8 318.05 1965.05 318.05" />
      <path class="cls-1"
        d="M2155.34,254.61V210.14h-40.47V180.62h81.29q26.24,0,44.84-7.67v29.54q-13.86,6.93-41.19,7.65v44.47h44.47v29.9h-44.47V499.58h-44.47V284.51h-44.48v-29.9Z" />
      <polygon class="cls-1" points="2140.39 485 2110.86 485 2118.52 299.45 2148.04 299.45 2140.39 485" />
      <polygon class="cls-1" points="2237.35 299.45 2244.28 485 2214.76 485 2207.46 299.45 2237.35 299.45" />
      <polygon class="cls-1"
        points="2415.25 389.85 2437.48 388.03 2437.48 417.93 2415.25 419.75 2415.25 499.58 2370.41 499.58 2370.41 423.39 2251.93 432.5 2251.93 402.98 2370.41 393.49 2370.41 172.95 2415.25 172.95 2415.25 389.85" />
      <path class="cls-1"
        d="M2274.5,175.52s41.9,13.25,61.91,49.47c28.12,50.93-24.23,74.76-24.73,98.7-.18,9,0,34.06,29.53,44.29,0,0-54.24-9.9-66.71-40.46s8.84-71.46,13.59-83.66C2295.38,225.13,2293.22,195.78,2274.5,175.52Z" />
      <path class="cls-1"
        d="M2532.44,350.84l44.48-8V261.91h-44.48V232h44.48V173h44.46V232h37.19v29.9h-37.19v73.27l37.19-6.57v29.54l-37.19,6.55V480.63a18.68,18.68,0,0,1-18.59,18.59h-63.06l-7.29-29.9h37.18c4.86,0,7.3-2.42,7.3-7.29V372.71l-44.48,7.67Z" />
      <path class="cls-1"
        d="M2673.51,340.65V360q0,17.47,13.49,28.79l42.29,37.91-87.13,72.91h62.7l54.68-45.94,51,45.94h62.69l-82-72.55,45.57-38.27q13.85-11.31,13.84-28.79V322.05a16.73,16.73,0,0,0-5.47-12.76,17.88,17.88,0,0,0-13.12-5.46h-48.85V261.91h75.1V232h-75.1V173.32h-44.46V232h-75.1v29.9h75.1v41.92h-65.26v29.51h125.4q7.29,0,7.3,7.31v15a14.15,14.15,0,0,1-5.48,11.65L2761,400.43l-37.55-33.18a13.83,13.83,0,0,1-5.83-11.65v-15Z" />
    </g>
  </g>
</svg>